<svg width="867" height="153" viewBox="0 0 867 153" fill="none" xmlns="http://www.w3.org/2000/svg">
<path d="M51.848 7.072V52H40.904V25.056L30.856 52H22.024L11.912 24.992V52H0.968V7.072H13.896L26.504 38.176L38.984 7.072H51.848ZM57.542 34.08C57.542 30.4107 58.2247 27.1893 59.59 24.416C60.998 21.6427 62.8967 19.5093 65.286 18.016C67.6753 16.5227 70.342 15.776 73.286 15.776C75.8033 15.776 78.0007 16.288 79.878 17.312C81.798 18.336 83.27 19.68 84.294 21.344V16.288H95.238V52H84.294V46.944C83.2273 48.608 81.734 49.952 79.814 50.976C77.9367 52 75.7393 52.512 73.222 52.512C70.3207 52.512 67.6753 51.7653 65.286 50.272C62.8967 48.736 60.998 46.5813 59.59 43.808C58.2247 40.992 57.542 37.7493 57.542 34.08ZM84.294 34.144C84.294 31.4133 83.526 29.2587 81.99 27.68C80.4967 26.1013 78.662 25.312 76.486 25.312C74.31 25.312 72.454 26.1013 70.918 27.68C69.4247 29.216 68.678 31.3493 68.678 34.08C68.678 36.8107 69.4247 38.9867 70.918 40.608C72.454 42.1867 74.31 42.976 76.486 42.976C78.662 42.976 80.4967 42.1867 81.99 40.608C83.526 39.0293 84.294 36.8747 84.294 34.144ZM124.98 52L114.1 37.024V52H103.156V4.64H114.1V30.816L124.916 16.288H138.42L123.572 34.208L138.548 52H124.98ZM176.382 33.568C176.382 34.592 176.318 35.6587 176.19 36.768H151.422C151.593 38.9867 152.297 40.6933 153.534 41.888C154.814 43.04 156.371 43.616 158.206 43.616C160.937 43.616 162.835 42.464 163.902 40.16H175.55C174.953 42.5067 173.865 44.6187 172.286 46.496C170.75 48.3733 168.809 49.8453 166.462 50.912C164.115 51.9787 161.491 52.512 158.59 52.512C155.091 52.512 151.977 51.7653 149.246 50.272C146.515 48.7787 144.382 46.6453 142.846 43.872C141.31 41.0987 140.542 37.856 140.542 34.144C140.542 30.432 141.289 27.1893 142.782 24.416C144.318 21.6427 146.451 19.5093 149.182 18.016C151.913 16.5227 155.049 15.776 158.59 15.776C162.046 15.776 165.118 16.5013 167.806 17.952C170.494 19.4027 172.585 21.472 174.078 24.16C175.614 26.848 176.382 29.984 176.382 33.568ZM165.182 30.688C165.182 28.8107 164.542 27.3173 163.262 26.208C161.982 25.0987 160.382 24.544 158.462 24.544C156.627 24.544 155.07 25.0773 153.79 26.144C152.553 27.2107 151.785 28.7253 151.486 30.688H165.182ZM215.622 42.72V52H210.054C206.086 52 202.993 51.04 200.774 49.12C198.555 47.1573 197.446 43.9787 197.446 39.584V25.376H193.094V16.288H197.446V7.584H208.39V16.288H215.558V25.376H208.39V39.712C208.39 40.7787 208.646 41.5467 209.158 42.016C209.67 42.4853 210.523 42.72 211.718 42.72H215.622ZM243.67 15.904C247.766 15.904 251.051 17.2693 253.526 20C256.001 22.688 257.238 26.4 257.238 31.136V52H246.358V32.608C246.358 30.2187 245.739 28.3627 244.502 27.04C243.265 25.7173 241.601 25.056 239.51 25.056C237.419 25.056 235.755 25.7173 234.518 27.04C233.281 28.3627 232.662 30.2187 232.662 32.608V52H221.718V4.64H232.662V21.088C233.771 19.5093 235.286 18.2507 237.206 17.312C239.126 16.3733 241.281 15.904 243.67 15.904ZM298.507 33.568C298.507 34.592 298.443 35.6587 298.315 36.768H273.547C273.718 38.9867 274.422 40.6933 275.659 41.888C276.939 43.04 278.496 43.616 280.331 43.616C283.062 43.616 284.96 42.464 286.027 40.16H297.675C297.078 42.5067 295.99 44.6187 294.411 46.496C292.875 48.3733 290.934 49.8453 288.587 50.912C286.24 51.9787 283.616 52.512 280.715 52.512C277.216 52.512 274.102 51.7653 271.371 50.272C268.64 48.7787 266.507 46.6453 264.971 43.872C263.435 41.0987 262.667 37.856 262.667 34.144C262.667 30.432 263.414 27.1893 264.907 24.416C266.443 21.6427 268.576 19.5093 271.307 18.016C274.038 16.5227 277.174 15.776 280.715 15.776C284.171 15.776 287.243 16.5013 289.931 17.952C292.619 19.4027 294.71 21.472 296.203 24.16C297.739 26.848 298.507 29.984 298.507 33.568ZM287.307 30.688C287.307 28.8107 286.667 27.3173 285.387 26.208C284.107 25.0987 282.507 24.544 280.587 24.544C278.752 24.544 277.195 25.0773 275.915 26.144C274.678 27.2107 273.91 28.7253 273.611 30.688H287.307ZM328.787 22.24C330.067 20.2773 331.667 18.7413 333.587 17.632C335.507 16.48 337.64 15.904 339.987 15.904V27.488H336.979C334.248 27.488 332.2 28.0853 330.835 29.28C329.47 30.432 328.787 32.48 328.787 35.424V52H317.843V16.288H328.787V22.24ZM350.722 12.576C348.802 12.576 347.223 12.0213 345.986 10.912C344.791 9.76 344.194 8.352 344.194 6.688C344.194 4.98133 344.791 3.57333 345.986 2.464C347.223 1.312 348.802 0.735996 350.722 0.735996C352.599 0.735996 354.135 1.312 355.33 2.464C356.567 3.57333 357.186 4.98133 357.186 6.688C357.186 8.352 356.567 9.76 355.33 10.912C354.135 12.0213 352.599 12.576 350.722 12.576ZM356.162 16.288V52H345.218V16.288H356.162ZM377.661 15.776C380.178 15.776 382.376 16.288 384.253 17.312C386.173 18.336 387.645 19.68 388.669 21.344V16.288H399.613V51.936C399.613 55.2213 398.952 58.1867 397.629 60.832C396.349 63.52 394.365 65.6533 391.677 67.232C389.032 68.8107 385.725 69.6 381.757 69.6C376.466 69.6 372.178 68.3413 368.893 65.824C365.608 63.3493 363.73 59.9787 363.261 55.712H374.077C374.418 57.0773 375.229 58.144 376.509 58.912C377.789 59.7227 379.368 60.128 381.245 60.128C383.506 60.128 385.298 59.4667 386.621 58.144C387.986 56.864 388.669 54.7947 388.669 51.936V46.88C387.602 48.544 386.13 49.9093 384.253 50.976C382.376 52 380.178 52.512 377.661 52.512C374.717 52.512 372.05 51.7653 369.661 50.272C367.272 48.736 365.373 46.5813 363.965 43.808C362.6 40.992 361.917 37.7493 361.917 34.08C361.917 30.4107 362.6 27.1893 363.965 24.416C365.373 21.6427 367.272 19.5093 369.661 18.016C372.05 16.5227 374.717 15.776 377.661 15.776ZM388.669 34.144C388.669 31.4133 387.901 29.2587 386.365 27.68C384.872 26.1013 383.037 25.312 380.861 25.312C378.685 25.312 376.829 26.1013 375.293 27.68C373.8 29.216 373.053 31.3493 373.053 34.08C373.053 36.8107 373.8 38.9867 375.293 40.608C376.829 42.1867 378.685 42.976 380.861 42.976C383.037 42.976 384.872 42.1867 386.365 40.608C387.901 39.0293 388.669 36.8747 388.669 34.144ZM429.483 15.904C433.579 15.904 436.864 17.2693 439.339 20C441.813 22.688 443.051 26.4 443.051 31.136V52H432.171V32.608C432.171 30.2187 431.552 28.3627 430.315 27.04C429.077 25.7173 427.413 25.056 425.323 25.056C423.232 25.056 421.568 25.7173 420.331 27.04C419.093 28.3627 418.475 30.2187 418.475 32.608V52H407.531V4.64H418.475V21.088C419.584 19.5093 421.099 18.2507 423.019 17.312C424.939 16.3733 427.093 15.904 429.483 15.904ZM470.56 42.72V52H464.992C461.024 52 457.93 51.04 455.712 49.12C453.493 47.1573 452.384 43.9787 452.384 39.584V25.376H448.032V16.288H452.384V7.584H463.328V16.288H470.496V25.376H463.328V39.712C463.328 40.7787 463.584 41.5467 464.096 42.016C464.608 42.4853 465.461 42.72 466.656 42.72H470.56ZM501.162 21.344C502.186 19.68 503.658 18.336 505.578 17.312C507.498 16.288 509.695 15.776 512.17 15.776C515.114 15.776 517.781 16.5227 520.17 18.016C522.559 19.5093 524.437 21.6427 525.802 24.416C527.21 27.1893 527.914 30.4107 527.914 34.08C527.914 37.7493 527.21 40.992 525.802 43.808C524.437 46.5813 522.559 48.736 520.17 50.272C517.781 51.7653 515.114 52.512 512.17 52.512C509.653 52.512 507.455 52.0213 505.578 51.04C503.701 50.016 502.229 48.672 501.162 47.008V52H490.218V4.64H501.162V21.344ZM516.778 34.08C516.778 31.3493 516.01 29.216 514.474 27.68C512.981 26.1013 511.125 25.312 508.906 25.312C506.73 25.312 504.874 26.1013 503.338 27.68C501.845 29.2587 501.098 31.4133 501.098 34.144C501.098 36.8747 501.845 39.0293 503.338 40.608C504.874 42.1867 506.73 42.976 508.906 42.976C511.082 42.976 512.938 42.1867 514.474 40.608C516.01 38.9867 516.778 36.8107 516.778 34.08ZM567.319 33.568C567.319 34.592 567.256 35.6587 567.128 36.768H542.36C542.53 38.9867 543.234 40.6933 544.472 41.888C545.752 43.04 547.309 43.616 549.144 43.616C551.874 43.616 553.773 42.464 554.84 40.16H566.488C565.89 42.5067 564.802 44.6187 563.224 46.496C561.688 48.3733 559.746 49.8453 557.4 50.912C555.053 51.9787 552.429 52.512 549.528 52.512C546.029 52.512 542.914 51.7653 540.184 50.272C537.453 48.7787 535.32 46.6453 533.784 43.872C532.248 41.0987 531.48 37.856 531.48 34.144C531.48 30.432 532.226 27.1893 533.72 24.416C535.256 21.6427 537.389 19.5093 540.12 18.016C542.85 16.5227 545.986 15.776 549.528 15.776C552.984 15.776 556.056 16.5013 558.744 17.952C561.432 19.4027 563.522 21.472 565.016 24.16C566.552 26.848 567.319 29.984 567.319 33.568ZM556.12 30.688C556.12 28.8107 555.48 27.3173 554.2 26.208C552.92 25.0987 551.32 24.544 549.4 24.544C547.565 24.544 546.008 25.0773 544.728 26.144C543.49 27.2107 542.722 28.7253 542.424 30.688H556.12ZM592.997 42.72V52H587.429C583.461 52 580.368 51.04 578.149 49.12C575.93 47.1573 574.821 43.9787 574.821 39.584V25.376H570.469V16.288H574.821V7.584H585.765V16.288H592.933V25.376H585.765V39.712C585.765 40.7787 586.021 41.5467 586.533 42.016C587.045 42.4853 587.898 42.72 589.093 42.72H592.997ZM613.621 52.512C610.506 52.512 607.733 51.9787 605.301 50.912C602.869 49.8453 600.949 48.3947 599.541 46.56C598.133 44.6827 597.344 42.592 597.173 40.288H607.989C608.117 41.5253 608.693 42.528 609.717 43.296C610.741 44.064 612 44.448 613.493 44.448C614.858 44.448 615.904 44.192 616.629 43.68C617.397 43.1253 617.781 42.4213 617.781 41.568C617.781 40.544 617.248 39.7973 616.181 39.328C615.114 38.816 613.386 38.2613 610.997 37.664C608.437 37.0667 606.304 36.448 604.597 35.808C602.89 35.1253 601.418 34.08 600.181 32.672C598.944 31.2213 598.325 29.28 598.325 26.848C598.325 24.8 598.88 22.944 599.989 21.28C601.141 19.5733 602.805 18.2293 604.981 17.248C607.2 16.2667 609.824 15.776 612.853 15.776C617.333 15.776 620.853 16.8853 623.413 19.104C626.016 21.3227 627.509 24.2667 627.893 27.936H617.781C617.61 26.6987 617.056 25.7173 616.117 24.992C615.221 24.2667 614.026 23.904 612.533 23.904C611.253 23.904 610.272 24.16 609.589 24.672C608.906 25.1413 608.565 25.8027 608.565 26.656C608.565 27.68 609.098 28.448 610.165 28.96C611.274 29.472 612.981 29.984 615.285 30.496C617.93 31.1787 620.085 31.8613 621.749 32.544C623.413 33.184 624.864 34.2507 626.101 35.744C627.381 37.1947 628.042 39.1573 628.085 41.632C628.085 43.7227 627.488 45.6 626.293 47.264C625.141 48.8853 623.456 50.1653 621.237 51.104C619.061 52.0427 616.522 52.512 613.621 52.512ZM646.557 41.888L639.453 60.256H632.477L636.189 41.888H646.557ZM682.974 52.512C679.475 52.512 676.318 51.7653 673.502 50.272C670.729 48.7787 668.531 46.6453 666.91 43.872C665.331 41.0987 664.542 37.856 664.542 34.144C664.542 30.4747 665.353 27.2533 666.974 24.48C668.595 21.664 670.814 19.5093 673.63 18.016C676.446 16.5227 679.603 15.776 683.102 15.776C686.601 15.776 689.758 16.5227 692.574 18.016C695.39 19.5093 697.609 21.664 699.23 24.48C700.851 27.2533 701.662 30.4747 701.662 34.144C701.662 37.8133 700.83 41.056 699.166 43.872C697.545 46.6453 695.305 48.7787 692.446 50.272C689.63 51.7653 686.473 52.512 682.974 52.512ZM682.974 43.04C685.065 43.04 686.835 42.272 688.286 40.736C689.779 39.2 690.526 37.0027 690.526 34.144C690.526 31.2853 689.801 29.088 688.35 27.552C686.942 26.016 685.193 25.248 683.102 25.248C680.969 25.248 679.198 26.016 677.79 27.552C676.382 29.0453 675.678 31.2427 675.678 34.144C675.678 37.0027 676.361 39.2 677.726 40.736C679.134 42.272 680.883 43.04 682.974 43.04ZM729.228 15.904C733.409 15.904 736.737 17.2693 739.212 20C741.729 22.688 742.988 26.4 742.988 31.136V52H732.108V32.608C732.108 30.2187 731.489 28.3627 730.252 27.04C729.015 25.7173 727.351 25.056 725.26 25.056C723.169 25.056 721.505 25.7173 720.268 27.04C719.031 28.3627 718.412 30.2187 718.412 32.608V52H707.468V16.288H718.412V21.024C719.521 19.4453 721.015 18.208 722.892 17.312C724.769 16.3733 726.881 15.904 729.228 15.904ZM784.06 42.72V52H778.492C774.524 52 771.43 51.04 769.212 49.12C766.993 47.1573 765.884 43.9787 765.884 39.584V25.376H761.532V16.288H765.884V7.584H776.828V16.288H783.996V25.376H776.828V39.712C776.828 40.7787 777.084 41.5467 777.596 42.016C778.108 42.4853 778.961 42.72 780.156 42.72H784.06ZM812.108 15.904C816.204 15.904 819.489 17.2693 821.964 20C824.438 22.688 825.676 26.4 825.676 31.136V52H814.796V32.608C814.796 30.2187 814.177 28.3627 812.94 27.04C811.702 25.7173 810.038 25.056 807.948 25.056C805.857 25.056 804.193 25.7173 802.956 27.04C801.718 28.3627 801.1 30.2187 801.1 32.608V52H790.156V4.64H801.1V21.088C802.209 19.5093 803.724 18.2507 805.644 17.312C807.564 16.3733 809.718 15.904 812.108 15.904ZM866.944 33.568C866.944 34.592 866.881 35.6587 866.753 36.768H841.985C842.155 38.9867 842.859 40.6933 844.097 41.888C845.377 43.04 846.934 43.616 848.769 43.616C851.499 43.616 853.398 42.464 854.465 40.16H866.113C865.515 42.5067 864.427 44.6187 862.849 46.496C861.313 48.3733 859.371 49.8453 857.025 50.912C854.678 51.9787 852.054 52.512 849.153 52.512C845.654 52.512 842.539 51.7653 839.809 50.272C837.078 48.7787 834.945 46.6453 833.409 43.872C831.873 41.0987 831.105 37.856 831.105 34.144C831.105 30.432 831.851 27.1893 833.345 24.416C834.881 21.6427 837.014 19.5093 839.745 18.016C842.475 16.5227 845.611 15.776 849.153 15.776C852.609 15.776 855.681 16.5013 858.369 17.952C861.057 19.4027 863.147 21.472 864.641 24.16C866.177 26.848 866.944 29.984 866.944 33.568ZM855.745 30.688C855.745 28.8107 855.105 27.3173 853.825 26.208C852.545 25.0987 850.945 24.544 849.025 24.544C847.19 24.544 845.633 25.0773 844.353 26.144C843.115 27.2107 842.347 28.7253 842.049 30.688H855.745ZM11.912 105.24C13.192 103.277 14.792 101.741 16.712 100.632C18.632 99.48 20.7653 98.904 23.112 98.904V110.488H20.104C17.3733 110.488 15.3253 111.085 13.96 112.28C12.5947 113.432 11.912 115.48 11.912 118.424V135H0.968V99.288H11.912V105.24ZM33.847 95.576C31.927 95.576 30.3483 95.0213 29.111 93.912C27.9163 92.76 27.319 91.352 27.319 89.688C27.319 87.9813 27.9163 86.5733 29.111 85.464C30.3483 84.312 31.927 83.736 33.847 83.736C35.7243 83.736 37.2603 84.312 38.455 85.464C39.6923 86.5733 40.311 87.9813 40.311 89.688C40.311 91.352 39.6923 92.76 38.455 93.912C37.2603 95.0213 35.7243 95.576 33.847 95.576ZM39.287 99.288V135H28.343V99.288H39.287ZM60.786 98.776C63.3033 98.776 65.5007 99.288 67.378 100.312C69.298 101.336 70.77 102.68 71.794 104.344V99.288H82.738V134.936C82.738 138.221 82.0767 141.187 80.754 143.832C79.474 146.52 77.49 148.653 74.802 150.232C72.1567 151.811 68.85 152.6 64.882 152.6C59.5913 152.6 55.3033 151.341 52.018 148.824C48.7327 146.349 46.8553 142.979 46.386 138.712H57.202C57.5433 140.077 58.354 141.144 59.634 141.912C60.914 142.723 62.4927 143.128 64.37 143.128C66.6313 143.128 68.4233 142.467 69.746 141.144C71.1113 139.864 71.794 137.795 71.794 134.936V129.88C70.7273 131.544 69.2553 132.909 67.378 133.976C65.5007 135 63.3033 135.512 60.786 135.512C57.842 135.512 55.1753 134.765 52.786 133.272C50.3967 131.736 48.498 129.581 47.09 126.808C45.7247 123.992 45.042 120.749 45.042 117.08C45.042 113.411 45.7247 110.189 47.09 107.416C48.498 104.643 50.3967 102.509 52.786 101.016C55.1753 99.5227 57.842 98.776 60.786 98.776ZM71.794 117.144C71.794 114.413 71.026 112.259 69.49 110.68C67.9967 109.101 66.162 108.312 63.986 108.312C61.81 108.312 59.954 109.101 58.418 110.68C56.9247 112.216 56.178 114.349 56.178 117.08C56.178 119.811 56.9247 121.987 58.418 123.608C59.954 125.187 61.81 125.976 63.986 125.976C66.162 125.976 67.9967 125.187 69.49 123.608C71.026 122.029 71.794 119.875 71.794 117.144ZM112.608 98.904C116.704 98.904 119.989 100.269 122.464 103C124.938 105.688 126.176 109.4 126.176 114.136V135H115.296V115.608C115.296 113.219 114.677 111.363 113.44 110.04C112.202 108.717 110.538 108.056 108.448 108.056C106.357 108.056 104.693 108.717 103.456 110.04C102.218 111.363 101.6 113.219 101.6 115.608V135H90.6555V87.64H101.6V104.088C102.709 102.509 104.224 101.251 106.144 100.312C108.064 99.3733 110.218 98.904 112.608 98.904ZM153.685 125.72V135H148.117C144.149 135 141.055 134.04 138.837 132.12C136.618 130.157 135.509 126.979 135.509 122.584V108.376H131.157V99.288H135.509V90.584H146.453V99.288H153.621V108.376H146.453V122.712C146.453 123.779 146.709 124.547 147.221 125.016C147.733 125.485 148.586 125.72 149.781 125.72H153.685ZM184.287 104.344C185.354 102.68 186.826 101.336 188.703 100.312C190.58 99.288 192.778 98.776 195.295 98.776C198.239 98.776 200.906 99.5227 203.295 101.016C205.684 102.509 207.562 104.643 208.927 107.416C210.335 110.189 211.039 113.411 211.039 117.08C211.039 120.749 210.335 123.992 208.927 126.808C207.562 129.581 205.684 131.736 203.295 133.272C200.906 134.765 198.239 135.512 195.295 135.512C192.82 135.512 190.623 135 188.703 133.976C186.826 132.952 185.354 131.629 184.287 130.008V152.024H173.343V99.288H184.287V104.344ZM199.903 117.08C199.903 114.349 199.135 112.216 197.599 110.68C196.106 109.101 194.25 108.312 192.031 108.312C189.855 108.312 187.999 109.101 186.463 110.68C184.97 112.259 184.223 114.413 184.223 117.144C184.223 119.875 184.97 122.029 186.463 123.608C187.999 125.187 189.855 125.976 192.031 125.976C194.207 125.976 196.063 125.187 197.599 123.608C199.135 121.987 199.903 119.811 199.903 117.08ZM227.725 105.24C229.005 103.277 230.605 101.741 232.525 100.632C234.445 99.48 236.578 98.904 238.925 98.904V110.488H235.917C233.186 110.488 231.138 111.085 229.773 112.28C228.407 113.432 227.725 115.48 227.725 118.424V135H216.781V99.288H227.725V105.24ZM260.412 135.512C256.913 135.512 253.756 134.765 250.94 133.272C248.166 131.779 245.969 129.645 244.348 126.872C242.769 124.099 241.98 120.856 241.98 117.144C241.98 113.475 242.79 110.253 244.411 107.48C246.033 104.664 248.252 102.509 251.068 101.016C253.884 99.5227 257.041 98.776 260.54 98.776C264.038 98.776 267.196 99.5227 270.012 101.016C272.828 102.509 275.046 104.664 276.668 107.48C278.289 110.253 279.1 113.475 279.1 117.144C279.1 120.813 278.268 124.056 276.604 126.872C274.982 129.645 272.742 131.779 269.884 133.272C267.068 134.765 263.91 135.512 260.412 135.512ZM260.412 126.04C262.502 126.04 264.273 125.272 265.724 123.736C267.217 122.2 267.964 120.003 267.964 117.144C267.964 114.285 267.238 112.088 265.788 110.552C264.38 109.016 262.63 108.248 260.54 108.248C258.406 108.248 256.636 109.016 255.228 110.552C253.82 112.045 253.116 114.243 253.116 117.144C253.116 120.003 253.798 122.2 255.164 123.736C256.572 125.272 258.321 126.04 260.412 126.04ZM290.345 95.576C288.426 95.576 286.847 95.0213 285.61 93.912C284.415 92.76 283.818 91.352 283.818 89.688C283.818 87.9813 284.415 86.5733 285.61 85.464C286.847 84.312 288.426 83.736 290.345 83.736C292.223 83.736 293.759 84.312 294.954 85.464C296.191 86.5733 296.81 87.9813 296.81 89.688C296.81 91.352 296.191 92.76 294.954 93.912C293.759 95.0213 292.223 95.576 290.345 95.576ZM295.85 139.608C295.85 144.003 294.74 147.16 292.522 149.08C290.303 151.043 287.21 152.024 283.242 152.024H278.953V142.744H281.578C282.772 142.744 283.626 142.509 284.138 142.04C284.65 141.571 284.906 140.803 284.906 139.736V99.288H295.85V139.608ZM337.382 116.568C337.382 117.592 337.318 118.659 337.19 119.768H312.422C312.593 121.987 313.297 123.693 314.534 124.888C315.814 126.04 317.371 126.616 319.206 126.616C321.937 126.616 323.835 125.464 324.902 123.16H336.55C335.953 125.507 334.865 127.619 333.286 129.496C331.75 131.373 329.809 132.845 327.462 133.912C325.115 134.979 322.491 135.512 319.59 135.512C316.091 135.512 312.977 134.765 310.246 133.272C307.515 131.779 305.382 129.645 303.846 126.872C302.31 124.099 301.542 120.856 301.542 117.144C301.542 113.432 302.289 110.189 303.782 107.416C305.318 104.643 307.451 102.509 310.182 101.016C312.913 99.5227 316.049 98.776 319.59 98.776C323.046 98.776 326.118 99.5013 328.806 100.952C331.494 102.403 333.585 104.472 335.078 107.16C336.614 109.848 337.382 112.984 337.382 116.568ZM326.182 113.688C326.182 111.811 325.542 110.317 324.262 109.208C322.982 108.099 321.382 107.544 319.462 107.544C317.627 107.544 316.07 108.077 314.79 109.144C313.553 110.211 312.785 111.725 312.486 113.688H326.182ZM340.98 117.144C340.98 113.432 341.726 110.189 343.22 107.416C344.756 104.643 346.868 102.509 349.556 101.016C352.286 99.5227 355.401 98.776 358.9 98.776C363.38 98.776 367.113 99.9493 370.1 102.296C373.129 104.643 375.113 107.949 376.052 112.216H364.404C363.422 109.485 361.524 108.12 358.708 108.12C356.702 108.12 355.102 108.909 353.908 110.488C352.713 112.024 352.116 114.243 352.116 117.144C352.116 120.045 352.713 122.285 353.908 123.864C355.102 125.4 356.702 126.168 358.708 126.168C361.524 126.168 363.422 124.803 364.404 122.072H376.052C375.113 126.253 373.129 129.539 370.1 131.928C367.07 134.317 363.337 135.512 358.9 135.512C355.401 135.512 352.286 134.765 349.556 133.272C346.868 131.779 344.756 129.645 343.22 126.872C341.726 124.099 340.98 120.856 340.98 117.144ZM401.81 125.72V135H396.242C392.274 135 389.18 134.04 386.962 132.12C384.743 130.157 383.634 126.979 383.634 122.584V108.376H379.282V99.288H383.634V90.584H394.578V99.288H401.746V108.376H394.578V122.712C394.578 123.779 394.834 124.547 395.346 125.016C395.858 125.485 396.711 125.72 397.906 125.72H401.81ZM422.434 135.512C419.319 135.512 416.546 134.979 414.114 133.912C411.682 132.845 409.762 131.395 408.354 129.56C406.946 127.683 406.156 125.592 405.986 123.288H416.802C416.93 124.525 417.506 125.528 418.53 126.296C419.554 127.064 420.812 127.448 422.306 127.448C423.671 127.448 424.716 127.192 425.442 126.68C426.21 126.125 426.594 125.421 426.594 124.568C426.594 123.544 426.06 122.797 424.994 122.328C423.927 121.816 422.199 121.261 419.81 120.664C417.25 120.067 415.116 119.448 413.41 118.808C411.703 118.125 410.231 117.08 408.994 115.672C407.756 114.221 407.138 112.28 407.138 109.848C407.138 107.8 407.692 105.944 408.802 104.28C409.954 102.573 411.618 101.229 413.794 100.248C416.012 99.2667 418.636 98.776 421.666 98.776C426.146 98.776 429.666 99.8853 432.226 102.104C434.828 104.323 436.322 107.267 436.706 110.936H426.594C426.423 109.699 425.868 108.717 424.93 107.992C424.034 107.267 422.839 106.904 421.346 106.904C420.066 106.904 419.084 107.16 418.402 107.672C417.719 108.141 417.378 108.803 417.378 109.656C417.378 110.68 417.911 111.448 418.978 111.96C420.087 112.472 421.794 112.984 424.098 113.496C426.743 114.179 428.898 114.861 430.562 115.544C432.226 116.184 433.676 117.251 434.914 118.744C436.194 120.195 436.855 122.157 436.898 124.632C436.898 126.723 436.3 128.6 435.106 130.264C433.954 131.885 432.268 133.165 430.05 134.104C427.874 135.043 425.335 135.512 422.434 135.512ZM448.713 135.512C446.793 135.512 445.214 134.957 443.977 133.848C442.782 132.696 442.185 131.288 442.185 129.624C442.185 127.917 442.782 126.488 443.977 125.336C445.214 124.184 446.793 123.608 448.713 123.608C450.59 123.608 452.126 124.184 453.321 125.336C454.558 126.488 455.177 127.917 455.177 129.624C455.177 131.288 454.558 132.696 453.321 133.848C452.126 134.957 450.59 135.512 448.713 135.512Z" fill="#FAF8F5"/>
</svg>
