<svg width="251" height="69" viewBox="0 0 251 69" fill="none" xmlns="http://www.w3.org/2000/svg">
<path d="M17.144 19.632C17.144 20.8267 16.8347 21.9253 16.216 22.928C15.6187 23.9307 14.7227 24.7307 13.528 25.328C12.3547 25.9253 10.9253 26.224 9.24 26.224C6.70133 26.224 4.61067 25.6053 2.968 24.368C1.32533 23.1307 0.429333 21.4027 0.28 19.184H6.104C6.18933 20.0373 6.488 20.7093 7 21.2C7.53333 21.6907 8.20533 21.936 9.016 21.936C9.72 21.936 10.2747 21.744 10.68 21.36C11.0853 20.976 11.288 20.464 11.288 19.824C11.288 19.248 11.096 18.768 10.712 18.384C10.3493 18 9.89067 17.6907 9.336 17.456C8.78133 17.2 8.01333 16.9013 7.032 16.56C5.60267 16.0693 4.42933 15.6 3.512 15.152C2.616 14.6827 1.83733 14 1.176 13.104C0.536 12.1867 0.216 11.0027 0.216 9.552C0.216 8.208 0.557333 7.04533 1.24 6.064C1.92267 5.08267 2.86133 4.336 4.056 3.824C5.272 3.29067 6.65867 3.024 8.216 3.024C10.7333 3.024 12.728 3.62133 14.2 4.816C15.6933 6.01067 16.536 7.65333 16.728 9.744H10.808C10.7013 8.99733 10.424 8.41067 9.976 7.984C9.54933 7.536 8.96267 7.312 8.216 7.312C7.576 7.312 7.05333 7.48267 6.648 7.824C6.264 8.16533 6.072 8.66667 6.072 9.328C6.072 9.86133 6.24267 10.32 6.584 10.704C6.94667 11.0667 7.39467 11.3653 7.928 11.6C8.46133 11.8347 9.22933 12.1333 10.232 12.496C11.6827 12.9867 12.8667 13.4773 13.784 13.968C14.7013 14.4373 15.4907 15.1307 16.152 16.048C16.8133 16.9653 17.144 18.16 17.144 19.632ZM31.4973 7.952C33.5453 7.952 35.1666 8.63467 36.3612 10C37.5773 11.3653 38.1853 13.2427 38.1853 15.632V26H32.7133V16.272C32.7133 15.0773 32.3933 14.1493 31.7533 13.488C31.1346 12.8053 30.3026 12.464 29.2573 12.464C28.1479 12.464 27.2626 12.816 26.6013 13.52C25.9613 14.224 25.6413 15.2267 25.6413 16.528V26H20.1693V2.32H25.6413V11.408C26.1533 10.3413 26.9106 9.49867 27.9133 8.88C28.9373 8.26133 30.1319 7.952 31.4973 7.952ZM41.2823 3.12C41.2823 2.288 41.5809 1.60533 42.1783 1.072C42.7756 0.517331 43.5649 0.239998 44.5463 0.239998C45.5276 0.239998 46.3169 0.517331 46.9143 1.072C47.5116 1.60533 47.8103 2.288 47.8103 3.12C47.8103 3.93067 47.5116 4.61333 46.9143 5.168C46.3169 5.70133 45.5276 5.968 44.5463 5.968C43.5649 5.968 42.7756 5.70133 42.1783 5.168C41.5809 4.61333 41.2823 3.93067 41.2823 3.12ZM47.2663 8.144V26H41.7943V8.144H47.2663ZM62.1803 7.92C63.6523 7.92 64.9643 8.29333 66.1163 9.04C67.2896 9.76533 68.2069 10.8213 68.8683 12.208C69.5509 13.5733 69.8923 15.1947 69.8923 17.072C69.8923 18.928 69.5509 20.5493 68.8683 21.936C68.2069 23.3227 67.2896 24.3893 66.1163 25.136C64.9643 25.8613 63.6523 26.224 62.1803 26.224C60.8149 26.224 59.6416 25.9147 58.6603 25.296C57.6789 24.6773 56.9643 23.8347 56.5163 22.768V34.512H51.0443V8.144H56.5163V11.376C56.9643 10.3093 57.6789 9.46667 58.6603 8.848C59.6416 8.22933 60.8149 7.92 62.1803 7.92ZM60.4203 12.72C59.2683 12.72 58.3189 13.1147 57.5723 13.904C56.8469 14.672 56.4843 15.728 56.4843 17.072C56.4843 18.3947 56.8469 19.4507 57.5723 20.24C58.3189 21.0293 59.2683 21.424 60.4203 21.424C61.5936 21.424 62.5323 21.04 63.2363 20.272C63.9616 19.504 64.3243 18.4373 64.3243 17.072C64.3243 15.7067 63.9616 14.64 63.2363 13.872C62.5323 13.104 61.5936 12.72 60.4203 12.72ZM12.216 49.952C14.264 49.952 15.8853 50.6347 17.08 52C18.296 53.3653 18.904 55.2427 18.904 57.632V68H13.432V58.272C13.432 57.0773 13.112 56.1493 12.472 55.488C11.8533 54.8053 11.0213 54.464 9.976 54.464C8.86667 54.464 7.98133 54.816 7.32 55.52C6.68 56.224 6.36 57.2267 6.36 58.528V68H0.888V50.144H6.36V53.408C6.872 52.3413 7.62933 51.4987 8.632 50.88C9.656 50.2613 10.8507 49.952 12.216 49.952ZM30.865 49.92C32.6357 49.92 34.2143 50.2933 35.601 51.04C37.009 51.7653 38.1077 52.8213 38.897 54.208C39.7077 55.5947 40.113 57.216 40.113 59.072C40.113 60.928 39.7077 62.5493 38.897 63.936C38.1077 65.3227 37.009 66.3893 35.601 67.136C34.2143 67.8613 32.6357 68.224 30.865 68.224C29.0943 68.224 27.505 67.8613 26.097 67.136C24.689 66.3893 23.5797 65.3227 22.769 63.936C21.9797 62.5493 21.585 60.928 21.585 59.072C21.585 57.216 21.9797 55.5947 22.769 54.208C23.5797 52.8213 24.689 51.7653 26.097 51.04C27.505 50.2933 29.0943 49.92 30.865 49.92ZM30.865 54.656C29.8197 54.656 28.9343 55.04 28.209 55.808C27.505 56.5547 27.153 57.6427 27.153 59.072C27.153 60.5013 27.505 61.5893 28.209 62.336C28.9343 63.0827 29.8197 63.456 30.865 63.456C31.9103 63.456 32.785 63.0827 33.489 62.336C34.193 61.5893 34.545 60.5013 34.545 59.072C34.545 57.6427 34.193 56.5547 33.489 55.808C32.785 55.04 31.9103 54.656 30.865 54.656ZM53.0625 63.296V68H50.5985C48.5078 68 46.8758 67.488 45.7025 66.464C44.5505 65.4187 43.9745 63.7013 43.9745 61.312V54.752H41.5745V50.144H43.9745V45.76H49.4465V50.144H53.0305V54.752H49.4465V61.408C49.4465 62.112 49.5852 62.6027 49.8625 62.88C50.1612 63.1573 50.6518 63.296 51.3345 63.296H53.0625ZM69.0403 49.92C71.3016 49.92 73.1043 50.4853 74.4483 51.616C75.8136 52.7467 76.6669 54.24 77.0083 56.096H71.8883C71.7389 55.3707 71.3976 54.8053 70.8643 54.4C70.3523 53.9733 69.7016 53.76 68.9123 53.76C68.2936 53.76 67.8243 53.8987 67.5043 54.176C67.1843 54.432 67.0243 54.8053 67.0243 55.296C67.0243 55.8507 67.3123 56.2667 67.8883 56.544C68.4856 56.8213 69.4136 57.0987 70.6723 57.376C72.0376 57.696 73.1576 58.0267 74.0323 58.368C74.9069 58.688 75.6643 59.2213 76.3043 59.968C76.9443 60.7147 77.2643 61.7173 77.2643 62.976C77.2643 64 76.9869 64.9067 76.4323 65.696C75.8776 66.4853 75.0776 67.104 74.0323 67.552C72.9869 68 71.7496 68.224 70.3203 68.224C67.9096 68.224 65.9789 67.6907 64.5283 66.624C63.0776 65.5573 62.1923 64.032 61.8723 62.048H67.1523C67.2376 62.816 67.5576 63.4027 68.1123 63.808C68.6883 64.2133 69.4243 64.416 70.3203 64.416C70.9389 64.416 71.4083 64.2773 71.7283 64C72.0483 63.7013 72.2083 63.3173 72.2083 62.848C72.2083 62.2293 71.9096 61.792 71.3123 61.536C70.7363 61.2587 69.7869 60.9707 68.4643 60.672C67.1416 60.3947 66.0536 60.096 65.2003 59.776C64.3469 59.456 63.6109 58.944 62.9923 58.24C62.3736 57.5147 62.0643 56.5333 62.0643 55.296C62.0643 53.696 62.6723 52.4053 63.8883 51.424C65.1043 50.4213 66.8216 49.92 69.0403 49.92ZM85.7663 44.32V68H80.2943V44.32H85.7663ZM89.0323 45.12C89.0323 44.288 89.3309 43.6053 89.9283 43.072C90.5256 42.5173 91.3149 42.24 92.2963 42.24C93.2776 42.24 94.0669 42.5173 94.6643 43.072C95.2616 43.6053 95.5603 44.288 95.5603 45.12C95.5603 45.9307 95.2616 46.6133 94.6643 47.168C94.0669 47.7013 93.2776 47.968 92.2963 47.968C91.3149 47.968 90.5256 47.7013 89.9283 47.168C89.3309 46.6133 89.0323 45.9307 89.0323 45.12ZM95.0163 50.144V68H89.5443V50.144H95.0163ZM105.578 49.92C106.944 49.92 108.117 50.2293 109.098 50.848C110.08 51.4667 110.794 52.3093 111.242 53.376V44.32H116.714V68H111.242V64.768C110.794 65.8347 110.08 66.6773 109.098 67.296C108.117 67.9147 106.944 68.224 105.578 68.224C104.106 68.224 102.784 67.8613 101.61 67.136C100.458 66.3893 99.5409 65.3227 98.8583 63.936C98.1969 62.5493 97.8663 60.928 97.8663 59.072C97.8663 57.1947 98.1969 55.5733 98.8583 54.208C99.5409 52.8213 100.458 51.7653 101.61 51.04C102.784 50.2933 104.106 49.92 105.578 49.92ZM107.338 54.72C106.165 54.72 105.216 55.104 104.49 55.872C103.786 56.64 103.434 57.7067 103.434 59.072C103.434 60.4373 103.786 61.504 104.49 62.272C105.216 63.04 106.165 63.424 107.338 63.424C108.49 63.424 109.429 63.0293 110.154 62.24C110.901 61.4507 111.274 60.3947 111.274 59.072C111.274 57.728 110.901 56.672 110.154 55.904C109.429 55.1147 108.49 54.72 107.338 54.72ZM137.442 58.592C137.442 59.04 137.388 59.5307 137.282 60.064H124.898C124.962 61.408 125.303 62.3787 125.922 62.976C126.54 63.552 127.33 63.84 128.29 63.84C129.1 63.84 129.772 63.6373 130.306 63.232C130.839 62.8267 131.191 62.304 131.362 61.664H137.154C136.919 62.9227 136.407 64.0533 135.618 65.056C134.828 66.0373 133.826 66.816 132.61 67.392C131.394 67.9467 130.039 68.224 128.546 68.224C126.796 68.224 125.239 67.8613 123.874 67.136C122.53 66.3893 121.474 65.3227 120.706 63.936C119.938 62.5493 119.554 60.928 119.554 59.072C119.554 57.1947 119.927 55.5733 120.674 54.208C121.442 52.8213 122.508 51.7653 123.874 51.04C125.239 50.2933 126.796 49.92 128.546 49.92C130.316 49.92 131.874 50.2827 133.218 51.008C134.562 51.7333 135.596 52.7573 136.322 54.08C137.068 55.3813 137.442 56.8853 137.442 58.592ZM131.906 57.76C131.927 56.5867 131.607 55.712 130.946 55.136C130.306 54.5387 129.506 54.24 128.546 54.24C127.543 54.24 126.711 54.5387 126.05 55.136C125.388 55.7333 125.015 56.608 124.93 57.76H131.906ZM153.485 49.92C154.85 49.92 156.023 50.2293 157.005 50.848C157.986 51.4667 158.701 52.3093 159.149 53.376V44.32H164.621V68H159.149V64.768C158.701 65.8347 157.986 66.6773 157.005 67.296C156.023 67.9147 154.85 68.224 153.485 68.224C152.013 68.224 150.69 67.8613 149.516 67.136C148.365 66.3893 147.447 65.3227 146.765 63.936C146.103 62.5493 145.773 60.928 145.773 59.072C145.773 57.1947 146.103 55.5733 146.765 54.208C147.447 52.8213 148.365 51.7653 149.516 51.04C150.69 50.2933 152.013 49.92 153.485 49.92ZM155.245 54.72C154.071 54.72 153.122 55.104 152.397 55.872C151.693 56.64 151.341 57.7067 151.341 59.072C151.341 60.4373 151.693 61.504 152.397 62.272C153.122 63.04 154.071 63.424 155.245 63.424C156.397 63.424 157.335 63.0293 158.061 62.24C158.807 61.4507 159.181 60.3947 159.181 59.072C159.181 57.728 158.807 56.672 158.061 55.904C157.335 55.1147 156.397 54.72 155.245 54.72ZM185.348 58.592C185.348 59.04 185.295 59.5307 185.188 60.064H172.804C172.868 61.408 173.209 62.3787 173.828 62.976C174.447 63.552 175.236 63.84 176.196 63.84C177.007 63.84 177.679 63.6373 178.212 63.232C178.745 62.8267 179.097 62.304 179.268 61.664H185.06C184.825 62.9227 184.313 64.0533 183.524 65.056C182.735 66.0373 181.732 66.816 180.516 67.392C179.3 67.9467 177.945 68.224 176.452 68.224C174.703 68.224 173.145 67.8613 171.78 67.136C170.436 66.3893 169.38 65.3227 168.612 63.936C167.844 62.5493 167.46 60.928 167.46 59.072C167.46 57.1947 167.833 55.5733 168.58 54.208C169.348 52.8213 170.415 51.7653 171.78 51.04C173.145 50.2933 174.703 49.92 176.452 49.92C178.223 49.92 179.78 50.2827 181.124 51.008C182.468 51.7333 183.503 52.7573 184.228 54.08C184.975 55.3813 185.348 56.8853 185.348 58.592ZM179.812 57.76C179.833 56.5867 179.513 55.712 178.852 55.136C178.212 54.5387 177.412 54.24 176.452 54.24C175.449 54.24 174.617 54.5387 173.956 55.136C173.295 55.7333 172.921 56.608 172.836 57.76H179.812ZM196.265 49.92C198.569 49.92 200.499 50.56 202.057 51.84C203.614 53.0987 204.595 54.8373 205.001 57.056H199.209C199.038 56.288 198.686 55.6907 198.153 55.264C197.619 54.8373 196.947 54.624 196.137 54.624C195.177 54.624 194.387 55.008 193.769 55.776C193.15 56.5227 192.841 57.6213 192.841 59.072C192.841 60.5227 193.15 61.632 193.769 62.4C194.387 63.1467 195.177 63.52 196.137 63.52C196.947 63.52 197.619 63.3067 198.153 62.88C198.686 62.4533 199.038 61.856 199.209 61.088H205.001C204.595 63.3067 203.614 65.056 202.057 66.336C200.499 67.5947 198.569 68.224 196.265 68.224C194.515 68.224 192.958 67.8613 191.593 67.136C190.249 66.3893 189.193 65.3227 188.424 63.936C187.657 62.5493 187.273 60.928 187.273 59.072C187.273 57.1947 187.646 55.5733 188.393 54.208C189.161 52.8213 190.227 51.7653 191.593 51.04C192.958 50.2933 194.515 49.92 196.265 49.92ZM218.673 68L213.329 60.416V68H207.857V44.32H213.329V57.312L218.673 50.144H225.105L217.905 59.072L225.265 68H218.673ZM233.759 49.92C236.02 49.92 237.823 50.4853 239.167 51.616C240.532 52.7467 241.386 54.24 241.727 56.096H236.607C236.458 55.3707 236.116 54.8053 235.583 54.4C235.071 53.9733 234.42 53.76 233.631 53.76C233.012 53.76 232.543 53.8987 232.223 54.176C231.903 54.432 231.743 54.8053 231.743 55.296C231.743 55.8507 232.031 56.2667 232.607 56.544C233.204 56.8213 234.132 57.0987 235.391 57.376C236.756 57.696 237.876 58.0267 238.751 58.368C239.626 58.688 240.383 59.2213 241.023 59.968C241.663 60.7147 241.983 61.7173 241.983 62.976C241.983 64 241.706 64.9067 241.151 65.696C240.596 66.4853 239.796 67.104 238.751 67.552C237.706 68 236.468 68.224 235.039 68.224C232.628 68.224 230.698 67.6907 229.247 66.624C227.796 65.5573 226.911 64.032 226.591 62.048H231.871C231.956 62.816 232.276 63.4027 232.831 63.808C233.407 64.2133 234.143 64.416 235.039 64.416C235.658 64.416 236.127 64.2773 236.447 64C236.767 63.7013 236.927 63.3173 236.927 62.848C236.927 62.2293 236.628 61.792 236.031 61.536C235.455 61.2587 234.506 60.9707 233.183 60.672C231.86 60.3947 230.772 60.096 229.919 59.776C229.066 59.456 228.33 58.944 227.711 58.24C227.092 57.5147 226.783 56.5333 226.783 55.296C226.783 53.696 227.391 52.4053 228.607 51.424C229.823 50.4213 231.54 49.92 233.759 49.92Z" fill="#FAF8F5"/>
<path d="M87.49 7.92C89.2607 7.92 90.8393 8.29333 92.226 9.04C93.634 9.76533 94.7327 10.8213 95.522 12.208C96.3327 13.5947 96.738 15.216 96.738 17.072C96.738 18.928 96.3327 20.5493 95.522 21.936C94.7327 23.3227 93.634 24.3893 92.226 25.136C90.8393 25.8613 89.2607 26.224 87.49 26.224C85.7193 26.224 84.13 25.8613 82.722 25.136C81.314 24.3893 80.2047 23.3227 79.394 21.936C78.6047 20.5493 78.21 18.928 78.21 17.072C78.21 15.216 78.6047 13.5947 79.394 12.208C80.2047 10.8213 81.314 9.76533 82.722 9.04C84.13 8.29333 85.7193 7.92 87.49 7.92ZM87.49 12.656C86.4447 12.656 85.5593 13.04 84.834 13.808C84.13 14.5547 83.778 15.6427 83.778 17.072C83.778 18.5013 84.13 19.5893 84.834 20.336C85.5593 21.0827 86.4447 21.456 87.49 21.456C88.5353 21.456 89.41 21.0827 90.114 20.336C90.818 19.5893 91.17 18.5013 91.17 17.072C91.17 15.6427 90.818 14.5547 90.114 13.808C89.41 13.04 88.5353 12.656 87.49 12.656ZM117.336 8.144V26H111.832V22.768C111.32 23.8133 110.552 24.6453 109.528 25.264C108.525 25.8827 107.352 26.192 106.008 26.192C103.96 26.192 102.328 25.5093 101.112 24.144C99.9168 22.7787 99.3195 20.9013 99.3195 18.512V8.144H104.76V17.84C104.76 19.056 105.069 20.0053 105.688 20.688C106.328 21.3493 107.181 21.68 108.248 21.68C109.357 21.68 110.232 21.328 110.872 20.624C111.512 19.92 111.832 18.9173 111.832 17.616V8.144H117.336ZM131.219 21.296V26H128.755C126.664 26 125.032 25.488 123.859 24.464C122.707 23.4187 122.131 21.7013 122.131 19.312V12.752H119.731V8.144H122.131V3.76H127.603V8.144H131.187V12.752H127.603V19.408C127.603 20.112 127.741 20.6027 128.019 20.88C128.317 21.1573 128.808 21.296 129.491 21.296H131.219ZM142.358 7.92C144.662 7.92 146.593 8.56 148.15 9.84C149.708 11.0987 150.689 12.8373 151.094 15.056H145.302C145.132 14.288 144.78 13.6907 144.246 13.264C143.713 12.8373 143.041 12.624 142.23 12.624C141.27 12.624 140.481 13.008 139.862 13.776C139.244 14.5227 138.934 15.6213 138.934 17.072C138.934 18.5227 139.244 19.632 139.862 20.4C140.481 21.1467 141.27 21.52 142.23 21.52C143.041 21.52 143.713 21.3067 144.246 20.88C144.78 20.4533 145.132 19.856 145.302 19.088H151.094C150.689 21.3067 149.708 23.056 148.15 24.336C146.593 25.5947 144.662 26.224 142.358 26.224C140.609 26.224 139.052 25.8613 137.686 25.136C136.342 24.3893 135.286 23.3227 134.518 21.936C133.75 20.5493 133.366 18.928 133.366 17.072C133.366 15.1947 133.74 13.5733 134.486 12.208C135.254 10.8213 136.321 9.76533 137.686 9.04C139.052 8.29333 140.609 7.92 142.358 7.92ZM162.303 7.92C164.073 7.92 165.652 8.29333 167.039 9.04C168.447 9.76533 169.545 10.8213 170.335 12.208C171.145 13.5947 171.551 15.216 171.551 17.072C171.551 18.928 171.145 20.5493 170.335 21.936C169.545 23.3227 168.447 24.3893 167.039 25.136C165.652 25.8613 164.073 26.224 162.303 26.224C160.532 26.224 158.943 25.8613 157.535 25.136C156.127 24.3893 155.017 23.3227 154.207 21.936C153.417 20.5493 153.023 18.928 153.023 17.072C153.023 15.216 153.417 13.5947 154.207 12.208C155.017 10.8213 156.127 9.76533 157.535 9.04C158.943 8.29333 160.532 7.92 162.303 7.92ZM162.303 12.656C161.257 12.656 160.372 13.04 159.647 13.808C158.943 14.5547 158.591 15.6427 158.591 17.072C158.591 18.5013 158.943 19.5893 159.647 20.336C160.372 21.0827 161.257 21.456 162.303 21.456C163.348 21.456 164.223 21.0827 164.927 20.336C165.631 19.5893 165.983 18.5013 165.983 17.072C165.983 15.6427 165.631 14.5547 164.927 13.808C164.223 13.04 163.348 12.656 162.303 12.656ZM197.524 7.952C199.721 7.952 201.449 8.63467 202.708 10C203.967 11.344 204.596 13.2213 204.596 15.632V26H199.156V16.272C199.156 15.1413 198.847 14.2667 198.228 13.648C197.631 13.008 196.809 12.688 195.764 12.688C194.676 12.688 193.812 13.0293 193.172 13.712C192.553 14.3733 192.244 15.312 192.244 16.528V26H186.772V16.272C186.772 15.1413 186.473 14.2667 185.876 13.648C185.279 13.008 184.457 12.688 183.412 12.688C182.324 12.688 181.46 13.0187 180.82 13.68C180.18 14.3413 179.86 15.2907 179.86 16.528V26H174.388V8.144H179.86V11.184C180.329 10.1813 181.044 9.392 182.004 8.816C182.985 8.24 184.127 7.952 185.428 7.952C186.793 7.952 187.999 8.272 189.044 8.912C190.089 9.53067 190.879 10.4267 191.412 11.6C192.031 10.4907 192.873 9.60533 193.94 8.944C195.028 8.28267 196.223 7.952 197.524 7.952ZM225.192 16.592C225.192 17.04 225.138 17.5307 225.032 18.064H212.648C212.712 19.408 213.053 20.3787 213.672 20.976C214.29 21.552 215.08 21.84 216.04 21.84C216.85 21.84 217.522 21.6373 218.056 21.232C218.589 20.8267 218.941 20.304 219.112 19.664H224.904C224.669 20.9227 224.157 22.0533 223.368 23.056C222.578 24.0373 221.576 24.816 220.36 25.392C219.144 25.9467 217.789 26.224 216.296 26.224C214.546 26.224 212.989 25.8613 211.624 25.136C210.28 24.3893 209.224 23.3227 208.456 21.936C207.688 20.5493 207.304 18.928 207.304 17.072C207.304 15.1947 207.677 13.5733 208.424 12.208C209.192 10.8213 210.258 9.76533 211.624 9.04C212.989 8.29333 214.546 7.92 216.296 7.92C218.066 7.92 219.624 8.28267 220.968 9.008C222.312 9.73333 223.346 10.7573 224.072 12.08C224.818 13.3813 225.192 14.8853 225.192 16.592ZM219.656 15.76C219.677 14.5867 219.357 13.712 218.696 13.136C218.056 12.5387 217.256 12.24 216.296 12.24C215.293 12.24 214.461 12.5387 213.8 13.136C213.138 13.7333 212.765 14.608 212.68 15.76H219.656ZM234.54 7.92C236.802 7.92 238.604 8.48533 239.948 9.616C241.314 10.7467 242.167 12.24 242.508 14.096H237.388C237.239 13.3707 236.898 12.8053 236.364 12.4C235.852 11.9733 235.202 11.76 234.412 11.76C233.794 11.76 233.324 11.8987 233.004 12.176C232.684 12.432 232.524 12.8053 232.524 13.296C232.524 13.8507 232.812 14.2667 233.388 14.544C233.986 14.8213 234.914 15.0987 236.172 15.376C237.538 15.696 238.658 16.0267 239.532 16.368C240.407 16.688 241.164 17.2213 241.804 17.968C242.444 18.7147 242.764 19.7173 242.764 20.976C242.764 22 242.487 22.9067 241.932 23.696C241.378 24.4853 240.578 25.104 239.532 25.552C238.487 26 237.25 26.224 235.82 26.224C233.41 26.224 231.479 25.6907 230.028 24.624C228.578 23.5573 227.692 22.032 227.372 20.048H232.652C232.738 20.816 233.058 21.4027 233.612 21.808C234.188 22.2133 234.924 22.416 235.82 22.416C236.439 22.416 236.908 22.2773 237.228 22C237.548 21.7013 237.708 21.3173 237.708 20.848C237.708 20.2293 237.41 19.792 236.812 19.536C236.236 19.2587 235.287 18.9707 233.964 18.672C232.642 18.3947 231.554 18.096 230.7 17.776C229.847 17.456 229.111 16.944 228.492 16.24C227.874 15.5147 227.564 14.5333 227.564 13.296C227.564 11.696 228.172 10.4053 229.388 9.424C230.604 8.42133 232.322 7.92 234.54 7.92ZM249.314 22.608C249.954 23.8453 250.274 25.1893 250.274 26.64C250.274 28.112 249.88 29.328 249.09 30.288C248.322 31.248 247.117 31.728 245.474 31.728V29.712C246.05 29.712 246.466 29.584 246.722 29.328C247 29.072 247.138 28.5813 247.138 27.856V27.536H244.802V22.608H249.314Z" fill="url(#paint0_linear_436_25745)"/>
<defs>
<linearGradient id="paint0_linear_436_25745" x1="70.6103" y1="0.325315" x2="197.688" y2="20.4016" gradientUnits="userSpaceOnUse">
<stop stop-color="#26CD89"/>
<stop offset="1" stop-color="#35B1D0"/>
</linearGradient>
</defs>
</svg>
