<svg width="280" height="119" viewBox="0 0 280 119" fill="none" xmlns="http://www.w3.org/2000/svg">
<path d="M23.072 3.536L15.104 26H8.256L0.288 3.536H6.112L11.68 20.496L17.28 3.536H23.072ZM28.111 6.288C27.151 6.288 26.3617 6.01067 25.743 5.456C25.1457 4.88 24.847 4.176 24.847 3.344C24.847 2.49067 25.1457 1.78667 25.743 1.232C26.3617 0.655998 27.151 0.367998 28.111 0.367998C29.0497 0.367998 29.8177 0.655998 30.415 1.232C31.0337 1.78667 31.343 2.49067 31.343 3.344C31.343 4.176 31.0337 4.88 30.415 5.456C29.8177 6.01067 29.0497 6.288 28.111 6.288ZM30.831 8.144V26H25.359V8.144H30.831ZM42.0605 26.256C40.5032 26.256 39.1165 25.9893 37.9005 25.456C36.6845 24.9227 35.7245 24.1973 35.0205 23.28C34.3165 22.3413 33.9218 21.296 33.8365 20.144H39.2445C39.3085 20.7627 39.5965 21.264 40.1085 21.648C40.6205 22.032 41.2498 22.224 41.9965 22.224C42.6792 22.224 43.2018 22.096 43.5645 21.84C43.9485 21.5627 44.1405 21.2107 44.1405 20.784C44.1405 20.272 43.8738 19.8987 43.3405 19.664C42.8072 19.408 41.9432 19.1307 40.7485 18.832C39.4685 18.5333 38.4018 18.224 37.5485 17.904C36.6952 17.5627 35.9592 17.04 35.3405 16.336C34.7218 15.6107 34.4125 14.64 34.4125 13.424C34.4125 12.4 34.6898 11.472 35.2445 10.64C35.8205 9.78667 36.6525 9.11467 37.7405 8.624C38.8498 8.13333 40.1618 7.888 41.6765 7.888C43.9165 7.888 45.6765 8.44267 46.9565 9.552C48.2578 10.6613 49.0045 12.1333 49.1965 13.968H44.1405C44.0552 13.3493 43.7778 12.8587 43.3085 12.496C42.8605 12.1333 42.2632 11.952 41.5165 11.952C40.8765 11.952 40.3858 12.08 40.0445 12.336C39.7032 12.5707 39.5325 12.9013 39.5325 13.328C39.5325 13.84 39.7992 14.224 40.3325 14.48C40.8872 14.736 41.7405 14.992 42.8925 15.248C44.2152 15.5893 45.2925 15.9307 46.1245 16.272C46.9565 16.592 47.6818 17.1253 48.3005 17.872C48.9405 18.5973 49.2712 19.5787 49.2925 20.816C49.2925 21.8613 48.9938 22.8 48.3965 23.632C47.8205 24.4427 46.9778 25.0827 45.8685 25.552C44.7805 26.0213 43.5112 26.256 42.0605 26.256ZM55.3923 6.288C54.4323 6.288 53.6429 6.01067 53.0243 5.456C52.4269 4.88 52.1283 4.176 52.1283 3.344C52.1283 2.49067 52.4269 1.78667 53.0243 1.232C53.6429 0.655998 54.4323 0.367998 55.3923 0.367998C56.3309 0.367998 57.0989 0.655998 57.6963 1.232C58.3149 1.78667 58.6243 2.49067 58.6243 3.344C58.6243 4.176 58.3149 4.88 57.6963 5.456C57.0989 6.01067 56.3309 6.288 55.3923 6.288ZM58.1123 8.144V26H52.6403V8.144H58.1123ZM67.5498 10.672C68.0618 9.84 68.7978 9.168 69.7578 8.656C70.7178 8.144 71.8164 7.888 73.0538 7.888C74.5258 7.888 75.8591 8.26133 77.0538 9.008C78.2484 9.75467 79.1871 10.8213 79.8698 12.208C80.5738 13.5947 80.9258 15.2053 80.9258 17.04C80.9258 18.8747 80.5738 20.496 79.8698 21.904C79.1871 23.2907 78.2484 24.368 77.0538 25.136C75.8591 25.8827 74.5258 26.256 73.0538 26.256C71.7951 26.256 70.6964 26.0107 69.7578 25.52C68.8191 25.008 68.0831 24.336 67.5498 23.504V26H62.0778V2.32H67.5498V10.672ZM75.3578 17.04C75.3578 15.6747 74.9738 14.608 74.2058 13.84C73.4591 13.0507 72.5311 12.656 71.4218 12.656C70.3338 12.656 69.4058 13.0507 68.6378 13.84C67.8911 14.6293 67.5178 15.7067 67.5178 17.072C67.5178 18.4373 67.8911 19.5147 68.6378 20.304C69.4058 21.0933 70.3338 21.488 71.4218 21.488C72.5098 21.488 73.4378 21.0933 74.2058 20.304C74.9738 19.4933 75.3578 18.4053 75.3578 17.04ZM86.5485 6.288C85.5885 6.288 84.7992 6.01067 84.1805 5.456C83.5832 4.88 83.2845 4.176 83.2845 3.344C83.2845 2.49067 83.5832 1.78667 84.1805 1.232C84.7992 0.655998 85.5885 0.367998 86.5485 0.367998C87.4872 0.367998 88.2552 0.655998 88.8525 1.232C89.4712 1.78667 89.7805 2.49067 89.7805 3.344C89.7805 4.176 89.4712 4.88 88.8525 5.456C88.2552 6.01067 87.4872 6.288 86.5485 6.288ZM89.2685 8.144V26H83.7965V8.144H89.2685ZM98.706 2.32V26H93.234V2.32H98.706ZM105.424 6.288C104.464 6.288 103.674 6.01067 103.056 5.456C102.458 4.88 102.16 4.176 102.16 3.344C102.16 2.49067 102.458 1.78667 103.056 1.232C103.674 0.655998 104.464 0.367998 105.424 0.367998C106.362 0.367998 107.13 0.655998 107.728 1.232C108.346 1.78667 108.656 2.49067 108.656 3.344C108.656 4.176 108.346 4.88 107.728 5.456C107.13 6.01067 106.362 6.288 105.424 6.288ZM108.144 8.144V26H102.672V8.144H108.144ZM122.061 21.36V26H119.277C117.293 26 115.746 25.52 114.637 24.56C113.528 23.5787 112.973 21.9893 112.973 19.792V12.688H110.797V8.144H112.973V3.792H118.445V8.144H122.029V12.688H118.445V19.856C118.445 20.3893 118.573 20.7733 118.829 21.008C119.085 21.2427 119.512 21.36 120.109 21.36H122.061ZM143.349 8.144L132.149 34.48H126.261L130.357 25.392L123.093 8.144H129.205L133.333 19.312L137.429 8.144H143.349ZM168.333 17.264H162.765V22.96H157.581V17.264H152.013V12.368H157.581V6.64H162.765V12.368H168.333V17.264ZM0.896 59.04C0.896 57.2053 1.23733 55.5947 1.92 54.208C2.624 52.8213 3.57333 51.7547 4.768 51.008C5.96267 50.2613 7.296 49.888 8.768 49.888C10.0267 49.888 11.1253 50.144 12.064 50.656C13.024 51.168 13.76 51.84 14.272 52.672V50.144H19.744V68H14.272V65.472C13.7387 66.304 12.992 66.976 12.032 67.488C11.0933 68 9.99467 68.256 8.736 68.256C7.28533 68.256 5.96267 67.8827 4.768 67.136C3.57333 66.368 2.624 65.2907 1.92 63.904C1.23733 62.496 0.896 60.8747 0.896 59.04ZM14.272 59.072C14.272 57.7067 13.888 56.6293 13.12 55.84C12.3733 55.0507 11.456 54.656 10.368 54.656C9.28 54.656 8.352 55.0507 7.584 55.84C6.83733 56.608 6.464 57.6747 6.464 59.04C6.464 60.4053 6.83733 61.4933 7.584 62.304C8.352 63.0933 9.28 63.488 10.368 63.488C11.456 63.488 12.3733 63.0933 13.12 62.304C13.888 61.5147 14.272 60.4373 14.272 59.072ZM29.1748 44.32V68H23.7028V44.32H29.1748ZM35.8923 48.288C34.9323 48.288 34.1429 48.0107 33.5243 47.456C32.9269 46.88 32.6283 46.176 32.6283 45.344C32.6283 44.4907 32.9269 43.7867 33.5243 43.232C34.1429 42.656 34.9323 42.368 35.8923 42.368C36.8309 42.368 37.5989 42.656 38.1963 43.232C38.8149 43.7867 39.1243 44.4907 39.1243 45.344C39.1243 46.176 38.8149 46.88 38.1963 47.456C37.5989 48.0107 36.8309 48.288 35.8923 48.288ZM38.6123 50.144V68H33.1403V50.144H38.6123ZM49.3618 49.888C50.6204 49.888 51.7191 50.144 52.6578 50.656C53.6178 51.168 54.3538 51.84 54.8658 52.672V50.144H60.3378V67.968C60.3378 69.6107 60.0071 71.0933 59.3458 72.416C58.7058 73.76 57.7138 74.8267 56.3698 75.616C55.0471 76.4053 53.3938 76.8 51.4098 76.8C48.7644 76.8 46.6204 76.1707 44.9778 74.912C43.3351 73.6747 42.3964 71.9893 42.1618 69.856H47.5698C47.7404 70.5387 48.1458 71.072 48.7858 71.456C49.4258 71.8613 50.2151 72.064 51.1538 72.064C52.2844 72.064 53.1804 71.7333 53.8418 71.072C54.5244 70.432 54.8658 69.3973 54.8658 67.968V65.44C54.3324 66.272 53.5964 66.9547 52.6578 67.488C51.7191 68 50.6204 68.256 49.3618 68.256C47.8898 68.256 46.5564 67.8827 45.3618 67.136C44.1671 66.368 43.2178 65.2907 42.5138 63.904C41.8311 62.496 41.4898 60.8747 41.4898 59.04C41.4898 57.2053 41.8311 55.5947 42.5138 54.208C43.2178 52.8213 44.1671 51.7547 45.3618 51.008C46.5564 50.2613 47.8898 49.888 49.3618 49.888ZM54.8658 59.072C54.8658 57.7067 54.4818 56.6293 53.7138 55.84C52.9671 55.0507 52.0498 54.656 50.9618 54.656C49.8738 54.656 48.9458 55.0507 48.1778 55.84C47.4311 56.608 47.0578 57.6747 47.0578 59.04C47.0578 60.4053 47.4311 61.4933 48.1778 62.304C48.9458 63.0933 49.8738 63.488 50.9618 63.488C52.0498 63.488 52.9671 63.0933 53.7138 62.304C54.4818 61.5147 54.8658 60.4373 54.8658 59.072ZM75.1765 49.952C77.2672 49.952 78.9312 50.6347 80.1685 52C81.4272 53.344 82.0565 55.2 82.0565 57.568V68H76.6165V58.304C76.6165 57.1093 76.3072 56.1813 75.6885 55.52C75.0698 54.8587 74.2378 54.528 73.1925 54.528C72.1472 54.528 71.3152 54.8587 70.6965 55.52C70.0778 56.1813 69.7685 57.1093 69.7685 58.304V68H64.2965V50.144H69.7685V52.512C70.3232 51.7227 71.0698 51.104 72.0085 50.656C72.9472 50.1867 74.0032 49.952 75.1765 49.952ZM108.643 49.952C110.862 49.952 112.622 50.624 113.923 51.968C115.246 53.312 115.907 55.1787 115.907 57.568V68H110.467V58.304C110.467 57.152 110.158 56.2667 109.539 55.648C108.942 55.008 108.11 54.688 107.043 54.688C105.976 54.688 105.134 55.008 104.515 55.648C103.918 56.2667 103.619 57.152 103.619 58.304V68H98.179V58.304C98.179 57.152 97.8697 56.2667 97.251 55.648C96.6537 55.008 95.8217 54.688 94.755 54.688C93.6883 54.688 92.8457 55.008 92.227 55.648C91.6297 56.2667 91.331 57.152 91.331 58.304V68H85.859V50.144H91.331V52.384C91.8857 51.6373 92.611 51.0507 93.507 50.624C94.403 50.176 95.4163 49.952 96.547 49.952C97.891 49.952 99.0857 50.24 100.131 50.816C101.198 51.392 102.03 52.2133 102.627 53.28C103.246 52.2987 104.088 51.4987 105.155 50.88C106.222 50.2613 107.384 49.952 108.643 49.952ZM136.566 58.784C136.566 59.296 136.534 59.8293 136.47 60.384H124.086C124.171 61.4933 124.523 62.3467 125.142 62.944C125.782 63.52 126.561 63.808 127.478 63.808C128.843 63.808 129.793 63.232 130.326 62.08H136.15C135.851 63.2533 135.307 64.3093 134.518 65.248C133.75 66.1867 132.779 66.9227 131.606 67.456C130.433 67.9893 129.121 68.256 127.67 68.256C125.921 68.256 124.363 67.8827 122.998 67.136C121.633 66.3893 120.566 65.3227 119.798 63.936C119.03 62.5493 118.646 60.928 118.646 59.072C118.646 57.216 119.019 55.5947 119.766 54.208C120.534 52.8213 121.601 51.7547 122.966 51.008C124.331 50.2613 125.899 49.888 127.67 49.888C129.398 49.888 130.934 50.2507 132.278 50.976C133.622 51.7013 134.667 52.736 135.414 54.08C136.182 55.424 136.566 56.992 136.566 58.784ZM130.966 57.344C130.966 56.4053 130.646 55.6587 130.006 55.104C129.366 54.5493 128.566 54.272 127.606 54.272C126.689 54.272 125.91 54.5387 125.27 55.072C124.651 55.6053 124.267 56.3627 124.118 57.344H130.966ZM150.333 49.952C152.423 49.952 154.087 50.6347 155.325 52C156.583 53.344 157.213 55.2 157.213 57.568V68H151.773V58.304C151.773 57.1093 151.463 56.1813 150.845 55.52C150.226 54.8587 149.394 54.528 148.349 54.528C147.303 54.528 146.471 54.8587 145.853 55.52C145.234 56.1813 144.925 57.1093 144.925 58.304V68H139.453V50.144H144.925V52.512C145.479 51.7227 146.226 51.104 147.165 50.656C148.103 50.1867 149.159 49.952 150.333 49.952ZM170.967 63.36V68H168.183C166.199 68 164.653 67.52 163.543 66.56C162.434 65.5787 161.879 63.9893 161.879 61.792V54.688H159.703V50.144H161.879V45.792H167.351V50.144H170.935V54.688H167.351V61.856C167.351 62.3893 167.479 62.7733 167.735 63.008C167.991 63.2427 168.418 63.36 169.015 63.36H170.967ZM179.709 59.04C179.709 57.2053 180.05 55.5947 180.733 54.208C181.437 52.8213 182.386 51.7547 183.581 51.008C184.775 50.2613 186.109 49.888 187.581 49.888C188.754 49.888 189.821 50.1333 190.781 50.624C191.762 51.1147 192.53 51.776 193.085 52.608V44.32H198.557V68H193.085V65.44C192.573 66.2933 191.837 66.976 190.877 67.488C189.938 68 188.839 68.256 187.581 68.256C186.109 68.256 184.775 67.8827 183.581 67.136C182.386 66.368 181.437 65.2907 180.733 63.904C180.05 62.496 179.709 60.8747 179.709 59.04ZM193.085 59.072C193.085 57.7067 192.701 56.6293 191.933 55.84C191.186 55.0507 190.269 54.656 189.181 54.656C188.093 54.656 187.165 55.0507 186.397 55.84C185.65 56.608 185.277 57.6747 185.277 59.04C185.277 60.4053 185.65 61.4933 186.397 62.304C187.165 63.0933 188.093 63.488 189.181 63.488C190.269 63.488 191.186 63.0933 191.933 62.304C192.701 61.5147 193.085 60.4373 193.085 59.072ZM207.987 53.12C208.627 52.1387 209.427 51.3707 210.387 50.816C211.347 50.24 212.414 49.952 213.587 49.952V55.744H212.083C210.718 55.744 209.694 56.0427 209.011 56.64C208.329 57.216 207.987 58.24 207.987 59.712V68H202.515V50.144H207.987V53.12ZM218.955 48.288C217.995 48.288 217.205 48.0107 216.587 47.456C215.989 46.88 215.691 46.176 215.691 45.344C215.691 44.4907 215.989 43.7867 216.587 43.232C217.205 42.656 217.995 42.368 218.955 42.368C219.893 42.368 220.661 42.656 221.259 43.232C221.877 43.7867 222.187 44.4907 222.187 45.344C222.187 46.176 221.877 46.88 221.259 47.456C220.661 48.0107 219.893 48.288 218.955 48.288ZM221.675 50.144V68H216.203V50.144H221.675ZM233.672 62.88L237.544 50.144H243.368L237.032 68H230.28L223.944 50.144H229.8L233.672 62.88ZM262.503 58.784C262.503 59.296 262.472 59.8293 262.408 60.384H250.024C250.109 61.4933 250.461 62.3467 251.08 62.944C251.72 63.52 252.498 63.808 253.416 63.808C254.781 63.808 255.73 63.232 256.264 62.08H262.088C261.789 63.2533 261.245 64.3093 260.456 65.248C259.688 66.1867 258.717 66.9227 257.544 67.456C256.37 67.9893 255.058 68.256 253.608 68.256C251.858 68.256 250.301 67.8827 248.936 67.136C247.57 66.3893 246.504 65.3227 245.736 63.936C244.968 62.5493 244.584 60.928 244.584 59.072C244.584 57.216 244.957 55.5947 245.704 54.208C246.472 52.8213 247.538 51.7547 248.904 51.008C250.269 50.2613 251.837 49.888 253.608 49.888C255.336 49.888 256.872 50.2507 258.216 50.976C259.56 51.7013 260.605 52.736 261.352 54.08C262.12 55.424 262.503 56.992 262.503 58.784ZM256.904 57.344C256.904 56.4053 256.584 55.6587 255.944 55.104C255.304 54.5493 254.504 54.272 253.544 54.272C252.626 54.272 251.848 54.5387 251.208 55.072C250.589 55.6053 250.205 56.3627 250.056 57.344H256.904ZM272.654 68.256C271.097 68.256 269.71 67.9893 268.494 67.456C267.278 66.9227 266.318 66.1973 265.614 65.28C264.91 64.3413 264.516 63.296 264.43 62.144H269.838C269.902 62.7627 270.19 63.264 270.702 63.648C271.214 64.032 271.844 64.224 272.59 64.224C273.273 64.224 273.796 64.096 274.158 63.84C274.542 63.5627 274.734 63.2107 274.734 62.784C274.734 62.272 274.468 61.8987 273.934 61.664C273.401 61.408 272.537 61.1307 271.342 60.832C270.062 60.5333 268.996 60.224 268.142 59.904C267.289 59.5627 266.553 59.04 265.934 58.336C265.316 57.6107 265.006 56.64 265.006 55.424C265.006 54.4 265.284 53.472 265.838 52.64C266.414 51.7867 267.246 51.1147 268.334 50.624C269.444 50.1333 270.756 49.888 272.27 49.888C274.51 49.888 276.27 50.4427 277.55 51.552C278.852 52.6613 279.598 54.1333 279.79 55.968H274.734C274.649 55.3493 274.372 54.8587 273.902 54.496C273.454 54.1333 272.857 53.952 272.11 53.952C271.47 53.952 270.98 54.08 270.638 54.336C270.297 54.5707 270.126 54.9013 270.126 55.328C270.126 55.84 270.393 56.224 270.926 56.48C271.481 56.736 272.334 56.992 273.486 57.248C274.809 57.5893 275.886 57.9307 276.718 58.272C277.55 58.592 278.276 59.1253 278.894 59.872C279.534 60.5973 279.865 61.5787 279.886 62.816C279.886 63.8613 279.588 64.8 278.99 65.632C278.414 66.4427 277.572 67.0827 276.462 67.552C275.374 68.0213 274.105 68.256 272.654 68.256Z" fill="#FAF8F5"/>
<path d="M10.016 104.88L13.888 92.144H19.712L13.376 110H6.624L0.288 92.144H6.144L10.016 104.88ZM38.8472 100.784C38.8472 101.296 38.8153 101.829 38.7513 102.384H26.3673C26.4526 103.493 26.8046 104.347 27.4233 104.944C28.0633 105.52 28.8419 105.808 29.7593 105.808C31.1246 105.808 32.0739 105.232 32.6073 104.08H38.4313C38.1326 105.253 37.5886 106.309 36.7993 107.248C36.0313 108.187 35.0606 108.923 33.8873 109.456C32.7139 109.989 31.4019 110.256 29.9513 110.256C28.2019 110.256 26.6446 109.883 25.2793 109.136C23.9139 108.389 22.8473 107.323 22.0793 105.936C21.3113 104.549 20.9273 102.928 20.9273 101.072C20.9273 99.216 21.3006 97.5947 22.0473 96.208C22.8153 94.8213 23.8819 93.7547 25.2473 93.008C26.6126 92.2613 28.1806 91.888 29.9513 91.888C31.6793 91.888 33.2153 92.2507 34.5593 92.976C35.9033 93.7013 36.9486 94.736 37.6953 96.08C38.4633 97.424 38.8472 98.992 38.8472 100.784ZM33.2473 99.344C33.2473 98.4053 32.9273 97.6587 32.2873 97.104C31.6473 96.5493 30.8473 96.272 29.8873 96.272C28.9699 96.272 28.1913 96.5387 27.5513 97.072C26.9326 97.6053 26.5486 98.3627 26.3993 99.344H33.2473ZM47.206 86.32V110H41.734V86.32H47.206ZM59.2995 110.256C57.5502 110.256 55.9715 109.883 54.5635 109.136C53.1768 108.389 52.0782 107.323 51.2675 105.936C50.4782 104.549 50.0835 102.928 50.0835 101.072C50.0835 99.2373 50.4888 97.6267 51.2995 96.24C52.1102 94.832 53.2195 93.7547 54.6275 93.008C56.0355 92.2613 57.6142 91.888 59.3635 91.888C61.1128 91.888 62.6915 92.2613 64.0995 93.008C65.5075 93.7547 66.6168 94.832 67.4275 96.24C68.2382 97.6267 68.6435 99.2373 68.6435 101.072C68.6435 102.907 68.2275 104.528 67.3955 105.936C66.5848 107.323 65.4648 108.389 64.0355 109.136C62.6275 109.883 61.0488 110.256 59.2995 110.256ZM59.2995 105.52C60.3448 105.52 61.2302 105.136 61.9555 104.368C62.7022 103.6 63.0755 102.501 63.0755 101.072C63.0755 99.6427 62.7128 98.544 61.9875 97.776C61.2835 97.008 60.4088 96.624 59.3635 96.624C58.2968 96.624 57.4115 97.008 56.7075 97.776C56.0035 98.5227 55.6515 99.6213 55.6515 101.072C55.6515 102.501 55.9928 103.6 56.6755 104.368C57.3795 105.136 58.2542 105.52 59.2995 105.52ZM70.4585 101.072C70.4585 99.216 70.8318 97.5947 71.5785 96.208C72.3465 94.8213 73.4025 93.7547 74.7465 93.008C76.1118 92.2613 77.6692 91.888 79.4185 91.888C81.6585 91.888 83.5252 92.4747 85.0185 93.648C86.5332 94.8213 87.5252 96.4747 87.9945 98.608H82.1705C81.6798 97.2427 80.7305 96.56 79.3225 96.56C78.3198 96.56 77.5198 96.9547 76.9225 97.744C76.3252 98.512 76.0265 99.6213 76.0265 101.072C76.0265 102.523 76.3252 103.643 76.9225 104.432C77.5198 105.2 78.3198 105.584 79.3225 105.584C80.7305 105.584 81.6798 104.901 82.1705 103.536H87.9945C87.5252 105.627 86.5332 107.269 85.0185 108.464C83.5038 109.659 81.6372 110.256 79.4185 110.256C77.6692 110.256 76.1118 109.883 74.7465 109.136C73.4025 108.389 72.3465 107.323 71.5785 105.936C70.8318 104.549 70.4585 102.928 70.4585 101.072ZM93.6735 90.288C92.7135 90.288 91.9242 90.0107 91.3055 89.456C90.7082 88.88 90.4095 88.176 90.4095 87.344C90.4095 86.4907 90.7082 85.7867 91.3055 85.232C91.9242 84.656 92.7135 84.368 93.6735 84.368C94.6122 84.368 95.3802 84.656 95.9775 85.232C96.5962 85.7867 96.9055 86.4907 96.9055 87.344C96.9055 88.176 96.5962 88.88 95.9775 89.456C95.3802 90.0107 94.6122 90.288 93.6735 90.288ZM96.3935 92.144V110H90.9215V92.144H96.3935ZM110.311 105.36V110H107.527C105.543 110 103.996 109.52 102.887 108.56C101.778 107.579 101.223 105.989 101.223 103.792V96.688H99.047V92.144H101.223V87.792H106.695V92.144H110.279V96.688H106.695V103.856C106.695 104.389 106.823 104.773 107.079 105.008C107.335 105.243 107.762 105.36 108.359 105.36H110.311ZM131.599 92.144L120.399 118.48H114.511L118.607 109.392L111.343 92.144H117.455L121.583 103.312L125.679 92.144H131.599Z" fill="url(#paint0_linear_437_28059)"/>
<defs>
<linearGradient id="paint0_linear_437_28059" x1="79.9049" y1="3.48797" x2="223.261" y2="20.3356" gradientUnits="userSpaceOnUse">
<stop stop-color="#26CD89"/>
<stop offset="1" stop-color="#35B1D0"/>
</linearGradient>
</defs>
</svg>
