<svg width="26" height="32" viewBox="0 0 26 32" fill="none" xmlns="http://www.w3.org/2000/svg">
<path d="M24.8 12.6667C24.0667 8.93333 22.2667 5.8 19.3333 3.33333C16.6667 1.13333 13.5333 0.0666667 10.1333 0C6.86667 0 3.66667 0 0.466667 0C0.333333 0 0.2 0 0.133333 0V7C0.266667 7 0.4 7 0.533333 7C1.86667 7 3.13333 6.93333 4.46667 6.93333C6.13333 6.93333 7.86667 6.93333 9.6 6.93333C10.3333 6.93333 11.1333 7 11.8 7.13333C14.5333 7.73333 16.4667 9.4 17.4667 12C18.3333 14.2 18.4 16.4 17.8 18.6667C17.1333 21.3333 15.6 23.2667 13 24.2667C11.8667 24.7333 10.6667 24.8667 9.4 24.8667C7.53333 24.8667 5.66667 24.8667 3.8 24.8C2.6 24.8 1.46667 24.8 0.266667 24.8C0.2 24.8 0.133333 24.8 0.0666667 24.8V32C0.2 32 0.266667 32 0.4 32C3.4 32 6.46667 32 9.46667 32C10.6 32 11.7333 31.8667 12.8 31.6667C17.0667 30.8 20.4 28.4667 22.6667 24.7333C25 20.9333 25.6 16.9333 24.8 12.6667ZM2.46667 20.2C3.8 20.4 5.13333 20.4 6.46667 20.2667C7.8 20.1333 8.8 19.2 9 18C9.13333 17.2667 9.13333 16.4667 9.2 15.9333C9.13333 15.1333 9.13333 14.5333 9.06667 13.9333C8.93333 12.4667 7.8 11.2667 6.33333 11.2C5.13333 11.1333 3.93333 11.1333 2.73333 11.2C1.2 11.2667 0.0666667 12.4667 0 14C0 15.1333 0 16.2667 0 17.4667C0.0666667 18.8667 1.06667 19.9333 2.46667 20.2Z" fill="#D1462F"/>
</svg>
